<?xml version="1.0" encoding="UTF-8"?>
<svg id="Layer_1" data-name="Layer 1" xmlns="http://www.w3.org/2000/svg" viewBox="0 0 123.89 94.13">
  <defs>
    <style>
      .cls-1 {
        fill: #3f2a24;
      }
    </style>
  </defs>
  <path class="cls-1" d="M117.91,10.38c.61.99.93,2.08,1.07,3.2.27,2.19-1.52,4.11-3.79,4.11h-44.44c-2.11,0-3.81-1.66-3.81-3.71v-5.59c0-2.05,1.71-3.7,3.82-3.7h41.06c1.16,0,2.26.52,2.99,1.4,1.13,1.37,2.17,2.76,3.11,4.29Z"/>
  <path class="cls-1" d="M96.53,94.13h-3.18c-2.77,0-5.01-2.18-5.01-4.87v-55.6c0-2.69,2.24-4.87,5.01-4.87h3.18c2.77,0,5.01,2.18,5.01,4.87v55.6c0,2.69-2.24,4.87-5.01,4.87Z"/>
  <path class="cls-1" d="M72.06,14.93l-24.06,72.87c-1.58,4.79-6.86,7.43-11.78,5.89-2.88-.9-5.03-3.08-5.98-5.65L5.33,19.16C3.91,15.3,1.1,7.68,0,4.67c1.63.1,3.13.18,5.49.32,4.26.25,12.46.73,14.89.88.4.93,26.24,72.66,27.54,76.12,0,0-17.76.24-17.76.24L54.22,9.36c.71-2.28,2.09-6.51,2.64-8.32,3.51-.18,8.05-.42,11.91-.62,4.49-.21,8.52-.48,8.38-.41-1.36,3.99-3.53,10.34-5.09,14.92h0Z"/>
  <ellipse class="cls-1" cx="119.01" cy="26.15" rx="4.89" ry="4.75"/>
</svg>